<?xml version="1.0" ?>
<svg xmlns="http://www.w3.org/2000/svg" xmlns:xlink="http://www.w3.org/1999/xlink" version="1.1" viewBox="0 0 32 32" style="enable-background:new 0 0 32 32;" xml:space="preserve">
<svg height="25px" style="enable-background:new 0 0 512 512;" version="1.1" viewBox="0 0 512 512" width="25px" xml:space="preserve" xmlns="http://www.w3.org/2000/svg" xmlns:xlink="http://www.w3.org/1999/xlink"><g id="_x39_1-dislike"><g><g><path d="M17.397,270.951V61.609c0-8.251,6.675-14.948,14.916-14.948h134.211v239.241H32.313     C24.072,285.901,17.397,279.202,17.397,270.951L17.397,270.951z M17.397,270.951" style="fill:#1872D9;" /><path d="M434.949,315.811H315.643v89.72c0,32.979-26.746,59.811-59.643,59.811h-44.748     c-8.221,0-14.904-6.701-14.904-14.958V379.6l-57.685-101.232c-1.313-2.267-1.969-4.813-1.969-7.416V61.609     c0-8.251,6.684-14.948,14.916-14.948h239.343c23.568,0,44.98,13.964,54.496,35.521l47.832,107.931     c0.873,1.917,1.322,3.984,1.322,6.073V256C494.604,288.98,467.848,315.811,434.949,315.811L434.949,315.811z M434.949,315.811" style="fill:#BCDFFD;" /></g></g></g><g id="Layer_1" /></svg></svg>